<mxfile host="app.diagrams.net" modified="2024-05-18T15:26:20.212Z" agent="Mozilla/5.0 (Macintosh; Intel Mac OS X 10_15_7) AppleWebKit/537.36 (KHTML, like Gecko) Chrome/124.0.0.0 Safari/537.36" etag="gr5UXyW20WL4UAEJoFa2" version="24.4.4" type="device">
  <diagram name="Página-1" id="SqilaWGb4T_nHLV0RARP">
    <mxGraphModel dx="1327" dy="580" grid="1" gridSize="10" guides="1" tooltips="1" connect="1" arrows="1" fold="1" page="1" pageScale="1" pageWidth="1169" pageHeight="827" math="0" shadow="0">
      <root>
        <mxCell id="0" />
        <mxCell id="1" parent="0" />
        <mxCell id="jdurV-6CWMv3BGpybMww-6" value="" style="endArrow=none;dashed=1;html=1;rounded=0;" edge="1" parent="1">
          <mxGeometry width="50" height="50" relative="1" as="geometry">
            <mxPoint x="200" y="120" as="sourcePoint" />
            <mxPoint x="1120" y="120" as="targetPoint" />
            <Array as="points">
              <mxPoint x="200" y="520" />
              <mxPoint x="1120" y="520" />
            </Array>
          </mxGeometry>
        </mxCell>
        <mxCell id="jdurV-6CWMv3BGpybMww-9" value="" style="endArrow=none;dashed=1;html=1;rounded=0;" edge="1" parent="1">
          <mxGeometry width="50" height="50" relative="1" as="geometry">
            <mxPoint x="200" y="120" as="sourcePoint" />
            <mxPoint x="1120" y="120" as="targetPoint" />
          </mxGeometry>
        </mxCell>
        <mxCell id="jdurV-6CWMv3BGpybMww-12" value="&lt;span style=&quot;color: rgb(41, 40, 39); font-family: az_ea_font, &amp;quot;Segoe UI&amp;quot;, az_font, system-ui, -apple-system, system-ui, Roboto, Oxygen, Ubuntu, Cantarell, &amp;quot;Open Sans&amp;quot;, &amp;quot;Helvetica Neue&amp;quot;, sans-serif; font-size: 13px; text-align: left; background-color: rgb(237, 235, 233);&quot;&gt;Developer&lt;/span&gt;" style="sketch=0;outlineConnect=0;fontColor=#232F3E;gradientColor=none;fillColor=#232F3D;strokeColor=none;dashed=0;verticalLabelPosition=bottom;verticalAlign=top;align=center;html=1;fontSize=12;fontStyle=0;aspect=fixed;pointerEvents=1;shape=mxgraph.aws4.user;" vertex="1" parent="1">
          <mxGeometry x="20" y="240" width="38" height="38" as="geometry" />
        </mxCell>
        <mxCell id="jdurV-6CWMv3BGpybMww-13" value="&lt;div style=&quot;text-align: left;&quot;&gt;&lt;font face=&quot;az_ea_font, Segoe UI, az_font, system-ui, -apple-system, system-ui, Roboto, Oxygen, Ubuntu, Cantarell, Open Sans, Helvetica Neue, sans-serif&quot; color=&quot;#292827&quot;&gt;&lt;span style=&quot;font-size: 13px; background-color: rgb(237, 235, 233);&quot;&gt;VsCode&lt;/span&gt;&lt;/font&gt;&lt;/div&gt;" style="verticalLabelPosition=bottom;html=1;verticalAlign=top;align=center;strokeColor=none;fillColor=#00BEF2;shape=mxgraph.azure.visual_studio_online;" vertex="1" parent="1">
          <mxGeometry x="100" y="240" width="40" height="37.5" as="geometry" />
        </mxCell>
        <mxCell id="jdurV-6CWMv3BGpybMww-15" value="" style="endArrow=classic;html=1;rounded=0;entryX=0;entryY=0.5;entryDx=0;entryDy=0;entryPerimeter=0;" edge="1" parent="1" source="jdurV-6CWMv3BGpybMww-12" target="jdurV-6CWMv3BGpybMww-13">
          <mxGeometry width="50" height="50" relative="1" as="geometry">
            <mxPoint x="95" y="328" as="sourcePoint" />
            <mxPoint x="145" y="278" as="targetPoint" />
          </mxGeometry>
        </mxCell>
        <mxCell id="jdurV-6CWMv3BGpybMww-17" value="" style="endArrow=classic;html=1;rounded=0;exitX=1;exitY=0.5;exitDx=0;exitDy=0;exitPerimeter=0;" edge="1" parent="1" source="jdurV-6CWMv3BGpybMww-13" target="jdurV-6CWMv3BGpybMww-35">
          <mxGeometry width="50" height="50" relative="1" as="geometry">
            <mxPoint x="520" y="240" as="sourcePoint" />
            <mxPoint x="270" y="259" as="targetPoint" />
          </mxGeometry>
        </mxCell>
        <mxCell id="jdurV-6CWMv3BGpybMww-25" value="&lt;span style=&quot;color: rgb(41, 40, 39); font-family: az_ea_font, &amp;quot;Segoe UI&amp;quot;, az_font, system-ui, -apple-system, &amp;quot;system-ui&amp;quot;, Roboto, Oxygen, Ubuntu, Cantarell, &amp;quot;Open Sans&amp;quot;, &amp;quot;Helvetica Neue&amp;quot;, sans-serif; font-size: 13px; text-align: left; background-color: rgb(237, 235, 233);&quot;&gt;Serviço de&lt;/span&gt;&lt;div&gt;&lt;span style=&quot;color: rgb(41, 40, 39); font-family: az_ea_font, &amp;quot;Segoe UI&amp;quot;, az_font, system-ui, -apple-system, &amp;quot;system-ui&amp;quot;, Roboto, Oxygen, Ubuntu, Cantarell, &amp;quot;Open Sans&amp;quot;, &amp;quot;Helvetica Neue&amp;quot;, sans-serif; font-size: 13px; text-align: left; background-color: rgb(237, 235, 233);&quot;&gt;&amp;nbsp;Aplicação&lt;/span&gt;&lt;/div&gt;" style="image;aspect=fixed;html=1;points=[];align=center;fontSize=12;image=img/lib/azure2/app_services/App_Services.svg;" vertex="1" parent="1">
          <mxGeometry x="790" y="230" width="34" height="34" as="geometry" />
        </mxCell>
        <mxCell id="jdurV-6CWMv3BGpybMww-26" value="&lt;span style=&quot;color: rgb(41, 40, 39); font-family: az_ea_font, &amp;quot;Segoe UI&amp;quot;, az_font, system-ui, -apple-system, &amp;quot;system-ui&amp;quot;, Roboto, Oxygen, Ubuntu, Cantarell, &amp;quot;Open Sans&amp;quot;, &amp;quot;Helvetica Neue&amp;quot;, sans-serif; font-size: 13px; text-align: left; background-color: rgb(237, 235, 233);&quot;&gt;plano do Serviço&amp;nbsp;&lt;/span&gt;&lt;div&gt;&lt;span style=&quot;color: rgb(41, 40, 39); font-family: az_ea_font, &amp;quot;Segoe UI&amp;quot;, az_font, system-ui, -apple-system, &amp;quot;system-ui&amp;quot;, Roboto, Oxygen, Ubuntu, Cantarell, &amp;quot;Open Sans&amp;quot;, &amp;quot;Helvetica Neue&amp;quot;, sans-serif; font-size: 13px; text-align: left; background-color: rgb(237, 235, 233);&quot;&gt;de Aplicação&lt;/span&gt;&lt;/div&gt;" style="image;aspect=fixed;html=1;points=[];align=center;fontSize=12;image=img/lib/azure2/app_services/App_Service_Plans.svg;" vertex="1" parent="1">
          <mxGeometry x="789" y="340" width="36" height="36" as="geometry" />
        </mxCell>
        <mxCell id="jdurV-6CWMv3BGpybMww-29" value="&lt;span style=&quot;color: rgb(41, 40, 39); font-family: az_ea_font, &amp;quot;Segoe UI&amp;quot;, az_font, system-ui, -apple-system, &amp;quot;system-ui&amp;quot;, Roboto, Oxygen, Ubuntu, Cantarell, &amp;quot;Open Sans&amp;quot;, &amp;quot;Helvetica Neue&amp;quot;, sans-serif; font-size: 13px; text-align: left; background-color: rgb(237, 235, 233);&quot;&gt;Base de dados&amp;nbsp;&lt;/span&gt;&lt;div&gt;&lt;span style=&quot;color: rgb(41, 40, 39); font-family: az_ea_font, &amp;quot;Segoe UI&amp;quot;, az_font, system-ui, -apple-system, &amp;quot;system-ui&amp;quot;, Roboto, Oxygen, Ubuntu, Cantarell, &amp;quot;Open Sans&amp;quot;, &amp;quot;Helvetica Neue&amp;quot;, sans-serif; font-size: 13px; text-align: left; background-color: rgb(237, 235, 233);&quot;&gt;SQL Azure&lt;/span&gt;&lt;/div&gt;" style="image;aspect=fixed;html=1;points=[];align=center;fontSize=12;image=img/lib/azure2/databases/SQL_Database.svg;" vertex="1" parent="1">
          <mxGeometry x="930" y="227" width="30" height="40" as="geometry" />
        </mxCell>
        <mxCell id="jdurV-6CWMv3BGpybMww-30" value="&lt;span style=&quot;color: rgb(41, 40, 39); font-family: az_ea_font, &amp;quot;Segoe UI&amp;quot;, az_font, system-ui, -apple-system, &amp;quot;system-ui&amp;quot;, Roboto, Oxygen, Ubuntu, Cantarell, &amp;quot;Open Sans&amp;quot;, &amp;quot;Helvetica Neue&amp;quot;, sans-serif; font-size: 13px; text-align: left; background-color: rgb(237, 235, 233);&quot;&gt;SQL Server&lt;/span&gt;" style="image;aspect=fixed;html=1;points=[];align=center;fontSize=12;image=img/lib/azure2/databases/SQL_Server.svg;" vertex="1" parent="1">
          <mxGeometry x="925" y="340" width="40" height="40" as="geometry" />
        </mxCell>
        <mxCell id="jdurV-6CWMv3BGpybMww-32" value="&lt;span style=&quot;color: rgb(41, 40, 39); font-family: az_ea_font, &amp;quot;Segoe UI&amp;quot;, az_font, system-ui, -apple-system, &amp;quot;system-ui&amp;quot;, Roboto, Oxygen, Ubuntu, Cantarell, &amp;quot;Open Sans&amp;quot;, &amp;quot;Helvetica Neue&amp;quot;, sans-serif; font-size: 13px; text-align: left; background-color: rgb(237, 235, 233);&quot;&gt;Grupo de&lt;/span&gt;&lt;div&gt;&lt;span style=&quot;color: rgb(41, 40, 39); font-family: az_ea_font, &amp;quot;Segoe UI&amp;quot;, az_font, system-ui, -apple-system, &amp;quot;system-ui&amp;quot;, Roboto, Oxygen, Ubuntu, Cantarell, &amp;quot;Open Sans&amp;quot;, &amp;quot;Helvetica Neue&amp;quot;, sans-serif; font-size: 13px; text-align: left; background-color: rgb(237, 235, 233);&quot;&gt;Recurso&lt;/span&gt;&lt;/div&gt;" style="image;aspect=fixed;html=1;points=[];align=center;fontSize=12;image=img/lib/azure2/general/Resource_Groups.svg;shadow=1;" vertex="1" parent="1">
          <mxGeometry x="1020" y="180" width="42.5" height="40" as="geometry" />
        </mxCell>
        <mxCell id="jdurV-6CWMv3BGpybMww-33" value="&lt;span style=&quot;color: rgb(41, 40, 39); font-family: az_ea_font, &amp;quot;Segoe UI&amp;quot;, az_font, system-ui, -apple-system, system-ui, Roboto, Oxygen, Ubuntu, Cantarell, &amp;quot;Open Sans&amp;quot;, &amp;quot;Helvetica Neue&amp;quot;, sans-serif; font-size: 13px; text-align: left; background-color: rgb(237, 235, 233);&quot;&gt;Subscrição&lt;/span&gt;" style="image;aspect=fixed;html=1;points=[];align=center;fontSize=12;image=img/lib/azure2/internet_of_things/Time_Series_Insights_Access_Policies.svg;" vertex="1" parent="1">
          <mxGeometry x="230" y="454" width="24.71" height="40" as="geometry" />
        </mxCell>
        <mxCell id="jdurV-6CWMv3BGpybMww-34" value="&lt;span style=&quot;color: rgb(41, 40, 39); font-family: az_ea_font, &amp;quot;Segoe UI&amp;quot;, az_font, system-ui, -apple-system, system-ui, Roboto, Oxygen, Ubuntu, Cantarell, &amp;quot;Open Sans&amp;quot;, &amp;quot;Helvetica Neue&amp;quot;, sans-serif; font-size: 13px; text-align: left; background-color: rgb(237, 235, 233);&quot;&gt;DevOps&lt;/span&gt;&lt;div&gt;&lt;span style=&quot;color: rgb(41, 40, 39); font-family: az_ea_font, &amp;quot;Segoe UI&amp;quot;, az_font, system-ui, -apple-system, system-ui, Roboto, Oxygen, Ubuntu, Cantarell, &amp;quot;Open Sans&amp;quot;, &amp;quot;Helvetica Neue&amp;quot;, sans-serif; font-size: 13px; text-align: left; background-color: rgb(237, 235, 233);&quot;&gt;Tools&lt;/span&gt;&lt;/div&gt;" style="image;sketch=0;aspect=fixed;html=1;points=[];align=center;fontSize=12;image=img/lib/mscae/Azure_DevOps.svg;" vertex="1" parent="1">
          <mxGeometry x="254.71" y="350" width="40" height="40" as="geometry" />
        </mxCell>
        <mxCell id="jdurV-6CWMv3BGpybMww-35" value="&lt;span style=&quot;color: rgb(41, 40, 39); font-family: az_ea_font, &amp;quot;Segoe UI&amp;quot;, az_font, system-ui, -apple-system, system-ui, Roboto, Oxygen, Ubuntu, Cantarell, &amp;quot;Open Sans&amp;quot;, &amp;quot;Helvetica Neue&amp;quot;, sans-serif; font-size: 13px; text-align: left; background-color: rgb(237, 235, 233);&quot;&gt;Repo&lt;/span&gt;" style="image;sketch=0;aspect=fixed;html=1;points=[];align=center;fontSize=12;image=img/lib/mscae/Azure_Repos.svg;" vertex="1" parent="1">
          <mxGeometry x="280" y="240" width="33.75" height="37.5" as="geometry" />
        </mxCell>
        <mxCell id="jdurV-6CWMv3BGpybMww-37" value="&lt;span style=&quot;color: rgb(41, 40, 39); font-family: az_ea_font, &amp;quot;Segoe UI&amp;quot;, az_font, system-ui, -apple-system, system-ui, Roboto, Oxygen, Ubuntu, Cantarell, &amp;quot;Open Sans&amp;quot;, &amp;quot;Helvetica Neue&amp;quot;, sans-serif; font-size: 13px; text-align: left; background-color: rgb(237, 235, 233);&quot;&gt;Build&lt;/span&gt;" style="image;sketch=0;aspect=fixed;html=1;points=[];align=center;fontSize=12;image=img/lib/mscae/Azure_Pipelines.svg;" vertex="1" parent="1">
          <mxGeometry x="385" y="240" width="40" height="40" as="geometry" />
        </mxCell>
        <mxCell id="jdurV-6CWMv3BGpybMww-40" value="" style="endArrow=none;dashed=1;html=1;rounded=0;" edge="1" parent="1">
          <mxGeometry width="50" height="50" relative="1" as="geometry">
            <mxPoint x="240" y="440" as="sourcePoint" />
            <mxPoint x="240" y="200" as="targetPoint" />
            <Array as="points">
              <mxPoint x="460" y="440" />
              <mxPoint x="680" y="440" />
              <mxPoint x="680" y="200" />
            </Array>
          </mxGeometry>
        </mxCell>
        <mxCell id="jdurV-6CWMv3BGpybMww-41" value="" style="endArrow=none;dashed=1;html=1;rounded=0;" edge="1" parent="1">
          <mxGeometry width="50" height="50" relative="1" as="geometry">
            <mxPoint x="240" y="440" as="sourcePoint" />
            <mxPoint x="240" y="200" as="targetPoint" />
          </mxGeometry>
        </mxCell>
        <mxCell id="jdurV-6CWMv3BGpybMww-43" value="&lt;span style=&quot;color: rgb(41, 40, 39); font-family: az_ea_font, &amp;quot;Segoe UI&amp;quot;, az_font, system-ui, -apple-system, system-ui, Roboto, Oxygen, Ubuntu, Cantarell, &amp;quot;Open Sans&amp;quot;, &amp;quot;Helvetica Neue&amp;quot;, sans-serif; font-size: 13px; text-align: left; background-color: rgb(237, 235, 233);&quot;&gt;Release&lt;/span&gt;" style="image;sketch=0;aspect=fixed;html=1;points=[];align=center;fontSize=12;image=img/lib/mscae/Azure_Pipelines.svg;" vertex="1" parent="1">
          <mxGeometry x="500" y="240" width="40" height="40" as="geometry" />
        </mxCell>
        <mxCell id="jdurV-6CWMv3BGpybMww-50" value="&lt;div style=&quot;text-align: left;&quot;&gt;&lt;font face=&quot;az_ea_font, Segoe UI, az_font, system-ui, -apple-system, system-ui, Roboto, Oxygen, Ubuntu, Cantarell, Open Sans, Helvetica Neue, sans-serif&quot; color=&quot;#292827&quot;&gt;&lt;span style=&quot;font-size: 13px; background-color: rgb(237, 235, 233);&quot;&gt;CI (BUILD)&lt;/span&gt;&lt;/font&gt;&lt;/div&gt;" style="text;html=1;align=center;verticalAlign=middle;resizable=0;points=[];autosize=1;strokeColor=none;fillColor=none;" vertex="1" parent="1">
          <mxGeometry x="360" y="210" width="90" height="30" as="geometry" />
        </mxCell>
        <mxCell id="jdurV-6CWMv3BGpybMww-51" value="&lt;span style=&quot;color: rgb(41, 40, 39); font-family: az_ea_font, &amp;quot;Segoe UI&amp;quot;, az_font, system-ui, -apple-system, system-ui, Roboto, Oxygen, Ubuntu, Cantarell, &amp;quot;Open Sans&amp;quot;, &amp;quot;Helvetica Neue&amp;quot;, sans-serif; font-size: 13px; text-align: left; background-color: rgb(237, 235, 233);&quot;&gt;CD (RELEASE)&lt;/span&gt;" style="text;html=1;align=center;verticalAlign=middle;resizable=0;points=[];autosize=1;strokeColor=none;fillColor=none;" vertex="1" parent="1">
          <mxGeometry x="470" y="210" width="110" height="30" as="geometry" />
        </mxCell>
        <mxCell id="jdurV-6CWMv3BGpybMww-52" value="" style="endArrow=classic;html=1;rounded=0;exitX=0.978;exitY=0.56;exitDx=0;exitDy=0;exitPerimeter=0;" edge="1" parent="1" source="jdurV-6CWMv3BGpybMww-35" target="jdurV-6CWMv3BGpybMww-37">
          <mxGeometry width="50" height="50" relative="1" as="geometry">
            <mxPoint x="490" y="370" as="sourcePoint" />
            <mxPoint x="540" y="320" as="targetPoint" />
          </mxGeometry>
        </mxCell>
        <mxCell id="jdurV-6CWMv3BGpybMww-53" value="" style="endArrow=classic;html=1;rounded=0;" edge="1" parent="1" source="jdurV-6CWMv3BGpybMww-37" target="jdurV-6CWMv3BGpybMww-43">
          <mxGeometry width="50" height="50" relative="1" as="geometry">
            <mxPoint x="500" y="380" as="sourcePoint" />
            <mxPoint x="550" y="330" as="targetPoint" />
          </mxGeometry>
        </mxCell>
        <mxCell id="jdurV-6CWMv3BGpybMww-56" value="" style="endArrow=classic;html=1;rounded=0;" edge="1" parent="1" source="jdurV-6CWMv3BGpybMww-43" target="jdurV-6CWMv3BGpybMww-57">
          <mxGeometry width="50" height="50" relative="1" as="geometry">
            <mxPoint x="490" y="370" as="sourcePoint" />
            <mxPoint x="600" y="260" as="targetPoint" />
          </mxGeometry>
        </mxCell>
        <mxCell id="jdurV-6CWMv3BGpybMww-57" value="&lt;span style=&quot;color: rgb(41, 40, 39); font-family: az_ea_font, &amp;quot;Segoe UI&amp;quot;, az_font, system-ui, -apple-system, system-ui, Roboto, Oxygen, Ubuntu, Cantarell, &amp;quot;Open Sans&amp;quot;, &amp;quot;Helvetica Neue&amp;quot;, sans-serif; font-size: 13px; text-align: left; text-wrap: nowrap; background-color: rgb(237, 235, 233);&quot;&gt;Deploy&lt;/span&gt;" style="text;html=1;align=center;verticalAlign=middle;whiteSpace=wrap;rounded=0;" vertex="1" parent="1">
          <mxGeometry x="600" y="240" width="50" height="38" as="geometry" />
        </mxCell>
        <mxCell id="jdurV-6CWMv3BGpybMww-58" value="" style="endArrow=none;dashed=1;html=1;rounded=0;" edge="1" parent="1">
          <mxGeometry width="50" height="50" relative="1" as="geometry">
            <mxPoint x="710" y="160" as="sourcePoint" />
            <mxPoint x="710" y="480" as="targetPoint" />
            <Array as="points">
              <mxPoint x="1080" y="160" />
              <mxPoint x="1080" y="480" />
              <mxPoint x="920" y="480" />
            </Array>
          </mxGeometry>
        </mxCell>
        <mxCell id="jdurV-6CWMv3BGpybMww-59" value="" style="endArrow=none;dashed=1;html=1;rounded=0;" edge="1" parent="1">
          <mxGeometry width="50" height="50" relative="1" as="geometry">
            <mxPoint x="710" y="480" as="sourcePoint" />
            <mxPoint x="710" y="160" as="targetPoint" />
          </mxGeometry>
        </mxCell>
        <mxCell id="jdurV-6CWMv3BGpybMww-60" value="" style="endArrow=none;dashed=1;html=1;rounded=0;" edge="1" parent="1">
          <mxGeometry width="50" height="50" relative="1" as="geometry">
            <mxPoint x="730" y="200" as="sourcePoint" />
            <mxPoint x="1040" y="260" as="targetPoint" />
            <Array as="points">
              <mxPoint x="730" y="440" />
              <mxPoint x="1040" y="440" />
            </Array>
          </mxGeometry>
        </mxCell>
        <mxCell id="jdurV-6CWMv3BGpybMww-62" value="" style="endArrow=none;dashed=1;html=1;rounded=0;entryX=-0.034;entryY=0.486;entryDx=0;entryDy=0;entryPerimeter=0;" edge="1" parent="1" target="jdurV-6CWMv3BGpybMww-32">
          <mxGeometry width="50" height="50" relative="1" as="geometry">
            <mxPoint x="730" y="199" as="sourcePoint" />
            <mxPoint x="630" y="340" as="targetPoint" />
          </mxGeometry>
        </mxCell>
        <mxCell id="jdurV-6CWMv3BGpybMww-64" value="" style="endArrow=none;dashed=1;html=1;rounded=0;" edge="1" parent="1">
          <mxGeometry width="50" height="50" relative="1" as="geometry">
            <mxPoint x="750" y="420" as="sourcePoint" />
            <mxPoint x="750" y="220" as="targetPoint" />
            <Array as="points">
              <mxPoint x="860" y="420" />
              <mxPoint x="860" y="220" />
            </Array>
          </mxGeometry>
        </mxCell>
        <mxCell id="jdurV-6CWMv3BGpybMww-65" value="" style="endArrow=none;dashed=1;html=1;rounded=0;" edge="1" parent="1">
          <mxGeometry width="50" height="50" relative="1" as="geometry">
            <mxPoint x="750" y="420" as="sourcePoint" />
            <mxPoint x="750" y="220" as="targetPoint" />
          </mxGeometry>
        </mxCell>
        <mxCell id="jdurV-6CWMv3BGpybMww-66" value="" style="endArrow=none;dashed=1;html=1;rounded=0;" edge="1" parent="1">
          <mxGeometry width="50" height="50" relative="1" as="geometry">
            <mxPoint x="890" y="420" as="sourcePoint" />
            <mxPoint x="890" y="220" as="targetPoint" />
            <Array as="points">
              <mxPoint x="1000" y="420" />
              <mxPoint x="1000" y="220" />
            </Array>
          </mxGeometry>
        </mxCell>
        <mxCell id="jdurV-6CWMv3BGpybMww-67" value="" style="endArrow=none;dashed=1;html=1;rounded=0;" edge="1" parent="1">
          <mxGeometry width="50" height="50" relative="1" as="geometry">
            <mxPoint x="890" y="420" as="sourcePoint" />
            <mxPoint x="890" y="220" as="targetPoint" />
          </mxGeometry>
        </mxCell>
        <mxCell id="jdurV-6CWMv3BGpybMww-69" value="" style="endArrow=classic;html=1;rounded=0;" edge="1" parent="1" source="jdurV-6CWMv3BGpybMww-30">
          <mxGeometry width="50" height="50" relative="1" as="geometry">
            <mxPoint x="944.44" y="330" as="sourcePoint" />
            <mxPoint x="944.44" y="310" as="targetPoint" />
          </mxGeometry>
        </mxCell>
        <mxCell id="jdurV-6CWMv3BGpybMww-72" value="" style="endArrow=classic;html=1;rounded=0;" edge="1" parent="1" source="jdurV-6CWMv3BGpybMww-57" target="jdurV-6CWMv3BGpybMww-25">
          <mxGeometry width="50" height="50" relative="1" as="geometry">
            <mxPoint x="670" y="247.44" as="sourcePoint" />
            <mxPoint x="730" y="246.44" as="targetPoint" />
          </mxGeometry>
        </mxCell>
        <mxCell id="jdurV-6CWMv3BGpybMww-73" value="" style="endArrow=classic;html=1;rounded=0;" edge="1" parent="1" source="jdurV-6CWMv3BGpybMww-25" target="jdurV-6CWMv3BGpybMww-29">
          <mxGeometry width="50" height="50" relative="1" as="geometry">
            <mxPoint x="825" y="204.5" as="sourcePoint" />
            <mxPoint x="965" y="195.5" as="targetPoint" />
          </mxGeometry>
        </mxCell>
      </root>
    </mxGraphModel>
  </diagram>
</mxfile>
